<svg width="40" height="40" viewBox="0 0 40 40" fill="none" xmlns="http://www.w3.org/2000/svg">
<path d="M14.1666 29.1667C13.6111 31.3889 12.7777 33.3333 11.6666 35C7.22218 33.3333 3.88885 31.1111 1.66663 28.3333C1.66663 20.5556 3.33329 13.8889 6.66663 8.33333C9.4444 6.66667 12.2222 5.55556 15 5L16.6666 8.33333C18.8888 7.77778 21.1111 7.77778 23.3333 8.33333L25 5C27.7777 5.55556 30.5555 6.66667 33.3333 8.33333C36.6666 13.8889 38.3333 20.5556 38.3333 28.3333C36.1111 31.1111 32.7777 33.3333 28.3333 35C27.2222 33.3333 26.3888 31.3889 25.8333 29.1667M11.6666 28.3333C17.2222 30.5556 22.7777 30.5556 28.3333 28.3333" stroke="white" stroke-width="2" stroke-linecap="round" stroke-linejoin="round"/>
<path d="M13.3333 21.6668C14.2538 21.6668 15 20.9206 15 20.0002C15 19.0797 14.2538 18.3335 13.3333 18.3335C12.4128 18.3335 11.6666 19.0797 11.6666 20.0002C11.6666 20.9206 12.4128 21.6668 13.3333 21.6668Z" stroke="white" stroke-width="2" stroke-linecap="round" stroke-linejoin="round"/>
<path d="M26.6667 21.6668C27.5871 21.6668 28.3333 20.9206 28.3333 20.0002C28.3333 19.0797 27.5871 18.3335 26.6667 18.3335C25.7462 18.3335 25 19.0797 25 20.0002C25 20.9206 25.7462 21.6668 26.6667 21.6668Z" stroke="white" stroke-width="2" stroke-linecap="round" stroke-linejoin="round"/>
</svg>
