<svg width="64" height="64" viewBox="0 0 64 64" fill="none" xmlns="http://www.w3.org/2000/svg">
<path d="M35.756 15.2533C34.2263 13.0163 32.1738 11.1864 29.7766 9.92238C27.3794 8.65838 24.71 7.9985 22 8H11C9.49709 8 8.05575 8.59702 6.99304 9.65973C5.93034 10.7224 5.33331 12.1638 5.33331 13.6667V24.6667C5.33331 33.4933 12.1933 40.716 20.8733 41.296C20.2924 39.3618 19.9982 37.3529 20 35.3333C20 32.3067 20.6506 29.4307 21.8213 26.84L15.1546 20.1733C14.842 19.8607 14.6664 19.4368 14.6664 18.9947C14.6664 18.5526 14.842 18.1286 15.1546 17.816C15.4672 17.5034 15.8912 17.3278 16.3333 17.3278C16.7754 17.3278 17.1994 17.5034 17.512 17.816L23.5066 23.812C26.3812 19.533 30.7494 16.4809 35.756 15.2533ZM29.184 44.4587C29.8776 45.3315 30.6685 46.1224 31.5413 46.816L43.5173 34.84C43.8299 34.5274 44.0055 34.1034 44.0055 33.6613C44.0055 33.2193 43.8299 32.7953 43.5173 32.4827C43.2047 32.1701 42.7807 31.9944 42.3386 31.9944C41.8966 31.9944 41.4726 32.1701 41.16 32.4827L29.184 44.4587ZM20.488 53.1547L26.8146 46.828C24.1289 43.6002 22.661 39.5324 22.6666 35.3333C22.6666 25.392 30.7253 17.3333 40.6666 17.3333H53C54.5029 17.3333 55.9442 17.9304 57.0069 18.9931C58.0696 20.0558 58.6666 21.4971 58.6666 23V35.3333C58.6666 45.2747 50.608 53.3333 40.6666 53.3333C36.4678 53.3394 32.3999 51.8719 29.172 49.1867L22.8453 55.512C22.5327 55.8246 22.1087 56.0002 21.6666 56.0002C21.2246 56.0002 20.8006 55.8246 20.488 55.512C20.1754 55.1994 19.9998 54.7754 19.9998 54.3333C19.9998 53.8913 20.1754 53.4673 20.488 53.1547Z" fill="url(#paint0_linear_19_134)"/>
<defs>
<linearGradient id="paint0_linear_19_134" x1="5.33331" y1="8" x2="53.0684" y2="61.0387" gradientUnits="userSpaceOnUse">
<stop stop-color="#FFF720"/>
<stop offset="1" stop-color="#3CD500"/>
</linearGradient>
</defs>
</svg>
