<svg width="60" height="60" viewBox="0 0 60 60" fill="none" xmlns="http://www.w3.org/2000/svg">
<path d="M11.25 50.625C10.7547 50.6185 10.2816 50.4189 9.93133 50.0687C9.5811 49.7184 9.38147 49.2453 9.375 48.75V11.25C9.375 10.7527 9.57254 10.2758 9.92417 9.92417C10.2758 9.57254 10.7527 9.375 11.25 9.375C11.7473 9.375 12.2242 9.57254 12.5758 9.92417C12.9275 10.2758 13.125 10.7527 13.125 11.25V48.75C13.1185 49.2453 12.9189 49.7184 12.5687 50.0687C12.2184 50.4189 11.7453 50.6185 11.25 50.625Z" fill="url(#paint0_linear_19_140)"/>
<path d="M48.75 50.625H11.25C10.7527 50.625 10.2758 50.4275 9.92417 50.0758C9.57254 49.7242 9.375 49.2473 9.375 48.75C9.375 48.2527 9.57254 47.7758 9.92417 47.4242C10.2758 47.0725 10.7527 46.875 11.25 46.875H48.75C49.2473 46.875 49.7242 47.0725 50.0758 47.4242C50.4275 47.7758 50.625 48.2527 50.625 48.75C50.625 49.2473 50.4275 49.7242 50.0758 50.0758C49.7242 50.4275 49.2473 50.625 48.75 50.625ZM35 36.875C34.7536 36.8762 34.5095 36.8281 34.282 36.7337C34.0545 36.6392 33.8481 36.5003 33.675 36.325L27.5 30.15L21.325 36.325C20.9696 36.6562 20.4994 36.8365 20.0137 36.8279C19.5279 36.8194 19.0645 36.6226 18.7209 36.2791C18.3774 35.9355 18.1806 35.4721 18.1721 34.9863C18.1635 34.5006 18.3438 34.0304 18.675 33.675L26.175 26.175C26.5266 25.8239 27.0031 25.6266 27.5 25.6266C27.9969 25.6266 28.4734 25.8239 28.825 26.175L35 32.35L43.675 23.675C44.0304 23.3438 44.5006 23.1635 44.9863 23.1721C45.4721 23.1806 45.9355 23.3774 46.2791 23.7209C46.6226 24.0645 46.8194 24.5279 46.8279 25.0137C46.8365 25.4994 46.6562 25.9696 46.325 26.325L36.325 36.325C36.1519 36.5003 35.9455 36.6392 35.718 36.7337C35.4905 36.8281 35.2464 36.8762 35 36.875Z" fill="url(#paint1_linear_19_140)"/>
<path d="M46.25 34.6C45.7547 34.5935 45.2816 34.3939 44.9313 34.0437C44.5811 33.6934 44.3815 33.2203 44.375 32.725V25.625H37.5C37.0027 25.625 36.5258 25.4275 36.1742 25.0758C35.8225 24.7242 35.625 24.2473 35.625 23.75C35.625 23.2527 35.8225 22.7758 36.1742 22.4242C36.5258 22.0725 37.0027 21.875 37.5 21.875H46.25C46.7453 21.8815 47.2184 22.0811 47.5687 22.4313C47.9189 22.7816 48.1185 23.2547 48.125 23.75V32.725C48.1185 33.2203 47.9189 33.6934 47.5687 34.0437C47.2184 34.3939 46.7453 34.5935 46.25 34.6Z" fill="url(#paint2_linear_19_140)"/>
<defs>
<linearGradient id="paint0_linear_19_140" x1="9.375" y1="9.375" x2="16.8135" y2="10.0512" gradientUnits="userSpaceOnUse">
<stop stop-color="#FFF720"/>
<stop offset="1" stop-color="#3CD500"/>
</linearGradient>
<linearGradient id="paint1_linear_19_140" x1="9.375" y1="23.1718" x2="34.6998" y2="61.2237" gradientUnits="userSpaceOnUse">
<stop stop-color="#FFF720"/>
<stop offset="1" stop-color="#3CD500"/>
</linearGradient>
<linearGradient id="paint2_linear_19_140" x1="35.625" y1="21.875" x2="48.348" y2="34.373" gradientUnits="userSpaceOnUse">
<stop stop-color="#FFF720"/>
<stop offset="1" stop-color="#3CD500"/>
</linearGradient>
</defs>
</svg>
