<svg width="60" height="60" viewBox="0 0 60 60" fill="none" xmlns="http://www.w3.org/2000/svg">
<path fill-rule="evenodd" clip-rule="evenodd" d="M52.75 20.01C52.6083 20.0017 52.4575 19.9983 52.2975 20H45.985C40.815 20 36.3925 24.07 36.3925 29.375C36.3925 34.68 40.8175 38.75 45.985 38.75H52.2975C52.4575 38.7517 52.6091 38.7483 52.7525 38.74C53.815 38.6759 54.8181 38.2278 55.5747 37.479C56.3313 36.7302 56.7899 35.7318 56.865 34.67C56.875 34.52 56.875 34.3575 56.875 34.2075V24.5425C56.875 24.3925 56.875 24.23 56.865 24.08C56.7899 23.0182 56.3313 22.0198 55.5747 21.271C54.8181 20.5223 53.8125 20.0741 52.75 20.01ZM45.4325 31.875C46.7625 31.875 47.84 30.755 47.84 29.375C47.84 27.995 46.7625 26.875 45.4325 26.875C44.1 26.875 43.0225 27.995 43.0225 29.375C43.0225 30.755 44.1 31.875 45.4325 31.875Z" fill="url(#paint0_linear_19_126)"/>
<path fill-rule="evenodd" clip-rule="evenodd" d="M52.295 42.5C52.3814 42.4965 52.4675 42.5135 52.5461 42.5495C52.6247 42.5855 52.6938 42.6396 52.7476 42.7073C52.8014 42.775 52.8385 42.8545 52.8559 42.9392C52.8732 43.0239 52.8704 43.1116 52.8475 43.195C52.3475 44.975 51.55 46.495 50.2725 47.77C48.4 49.645 46.0275 50.4725 43.0975 50.8675C40.2475 51.25 36.61 51.25 32.015 51.25H26.735C22.14 51.25 18.5 51.25 15.6525 50.8675C12.7225 50.4725 10.35 49.6425 8.4775 47.7725C6.6075 45.9 5.7775 43.5275 5.3825 40.5975C5 37.7475 5 34.11 5 29.515V29.235C5 24.64 5 21 5.3825 18.15C5.7775 15.22 6.6075 12.8475 8.4775 10.975C10.35 9.105 12.7225 8.275 15.6525 7.88C18.5025 7.5 22.14 7.5 26.735 7.5H32.015C36.61 7.5 40.25 7.5 43.0975 7.8825C46.0275 8.2775 48.4 9.1075 50.2725 10.9775C51.55 12.2575 52.3475 13.775 52.8475 15.555C52.8704 15.6384 52.8732 15.7261 52.8559 15.8108C52.8385 15.8955 52.8014 15.975 52.7476 16.0427C52.6938 16.1104 52.6247 16.1645 52.5461 16.2005C52.4675 16.2365 52.3814 16.2535 52.295 16.25H45.985C38.8925 16.25 32.6425 21.85 32.6425 29.375C32.6425 36.9 38.8925 42.5 45.985 42.5H52.295ZM14.375 17.5C13.8777 17.5 13.4008 17.6975 13.0492 18.0492C12.6975 18.4008 12.5 18.8777 12.5 19.375C12.5 19.8723 12.6975 20.3492 13.0492 20.7008C13.4008 21.0525 13.8777 21.25 14.375 21.25H24.375C24.8723 21.25 25.3492 21.0525 25.7008 20.7008C26.0525 20.3492 26.25 19.8723 26.25 19.375C26.25 18.8777 26.0525 18.4008 25.7008 18.0492C25.3492 17.6975 24.8723 17.5 24.375 17.5H14.375Z" fill="url(#paint1_linear_19_126)"/>
<defs>
<linearGradient id="paint0_linear_19_126" x1="36.3925" y1="19.9996" x2="55.0704" y2="40.4024" gradientUnits="userSpaceOnUse">
<stop stop-color="#FFF720"/>
<stop offset="1" stop-color="#3CD500"/>
</linearGradient>
<linearGradient id="paint1_linear_19_126" x1="5" y1="7.5" x2="48.5737" y2="55.1741" gradientUnits="userSpaceOnUse">
<stop stop-color="#FFF720"/>
<stop offset="1" stop-color="#3CD500"/>
</linearGradient>
</defs>
</svg>
